<?xml version="1.0" encoding="UTF-8" standalone="no"?>
<!-- Created with Inkscape (http://www.inkscape.org/) -->

<svg
   xmlns:dc="http://purl.org/dc/elements/1.1/"
   xmlns:cc="http://creativecommons.org/ns#"
   xmlns:rdf="http://www.w3.org/1999/02/22-rdf-syntax-ns#"
   xmlns:svg="http://www.w3.org/2000/svg"
   xmlns="http://www.w3.org/2000/svg"
   xmlns:sodipodi="http://sodipodi.sourceforge.net/DTD/sodipodi-0.dtd"
   xmlns:inkscape="http://www.inkscape.org/namespaces/inkscape"
   width="513.22913mm"
   height="345.87mm"
   viewBox="0 0 1818.5284 1225.5236"
   id="svg4776"
   version="1.1"
   inkscape:version="0.91 r13725"
   sodipodi:docname="YunityPathLogo4.svg">
  <defs
     id="defs4778" />
  <sodipodi:namedview
     id="base"
     pagecolor="#ffffff"
     bordercolor="#666666"
     borderopacity="1.0"
     inkscape:pageopacity="0.0"
     inkscape:pageshadow="2"
     inkscape:zoom="0.061871843"
     inkscape:cx="-822.40351"
     inkscape:cy="1018.3181"
     inkscape:document-units="px"
     inkscape:current-layer="g4675"
     showgrid="false"
     fit-margin-top="0"
     fit-margin-left="0"
     fit-margin-right="0"
     fit-margin-bottom="0"
     inkscape:window-width="1366"
     inkscape:window-height="718"
     inkscape:window-x="0"
     inkscape:window-y="0"
     inkscape:window-maximized="1" />
  <metadata
     id="metadata4781">
    <rdf:RDF>
      <cc:Work
         rdf:about="">
        <dc:format>image/svg+xml</dc:format>
        <dc:type
           rdf:resource="http://purl.org/dc/dcmitype/StillImage" />
        <dc:title></dc:title>
      </cc:Work>
    </rdf:RDF>
  </metadata>
  <g
     inkscape:label="Ebene 1"
     inkscape:groupmode="layer"
     id="layer1"
     transform="translate(315.81368,369.07276)" />
  <g
     id="g4675"
     transform="translate(-1317.6816,281.15051)">
    <g
       id="g3382">
      <g
         transform="translate(1365.7263,-727.30984)"
         id="g3363">
        <path
           inkscape:connector-curvature="0"
           style="opacity:1;fill:#f1e7c9"
           d="m 1275.4053,577.8334 c 29.1039,25.43061 46.6228,62.72885 46.6228,106.24344 0,75.72674 -65.2719,141.56376 -151.1709,141.56376 -73.4662,0 -131.1089,-45.49255 -183.10041,-92.39789 l -69.22777,66.68471 c 69.7929,63.0114 150.04058,122.3495 250.63278,122.3495 151.1709,0 261.0876,-111.047 261.0876,-237.91751 0,-74.03135 -29.1039,-137.04275 -78.5523,-179.70967 z"
           class="st0"
           id="XMLID_7_" />
        <path
           style="opacity:1;fill:#ee5732"
           inkscape:connector-curvature="0"
           d="m 1175.9433,542.79567 c 11.02,0 21.4748,1.13024 31.647,3.10819 l 82.2257,-79.11747 c -31.647,-13.28042 -67.5324,-20.62706 -106.8086,-20.62706 -139.3033,0 -230.28833,90.1374 -317.88267,172.08049 C 795.04926,552.4028 715.9318,474.13301 615.62216,452.09314 l 0,99.74451 c 71.20571,23.17014 127.15306,85.89897 180.83992,132.23919 C 731.19016,746.8057 652.0727,825.6406 554.30613,825.6406 c -84.20359,0 -146.08474,-59.62066 -146.08474,-141.56376 0,-71.48827 58.4904,-134.49966 137.3253,-140.9986 l 0,-96.35378 C 402.57013,453.78853 300,561.44478 300,684.07684 c 0,138.45557 103.13526,237.91754 247.24207,237.91754 133.08687,0 222.09401,-82.22568 306.2976,-161.34313 3.95586,-3.67329 7.62918,-7.34661 11.58506,-10.73736 l 78.8349,-75.72672 c 63.29397,-60.46834 139.30327,-131.3915 231.98367,-131.3915 z"
           class="st1"
           id="XMLID_15_-4" />
      </g>
      <g
         transform="translate(0,34)"
         id="g3367">
        <g
           style="font-style:normal;font-variant:normal;font-weight:normal;font-stretch:normal;font-size:806.68493652px;line-height:125%;font-family:Candara;-inkscape-font-specification:Candara;letter-spacing:104.23505402px;word-spacing:0px;opacity:1;fill:#ef5731;fill-opacity:1;stroke:none;stroke-width:1px;stroke-linecap:butt;stroke-linejoin:miter;stroke-opacity:1"
           id="text4265"
           transform="matrix(0.71736573,0,0,0.71736573,575.32366,141.35883)">
          <path
             d="m 1669.608,896.94685 q -65.3415,0 -99.2223,-42.7543 -33.8807,-43.56098 -33.8807,-129.06959 l 0,-258.13918 88.7353,0 0,240.39211 q 0,113.74258 79.8618,113.74258 38.7209,0 72.6017,-23.39386 33.8807,-23.39387 52.4345,-67.76154 l 0,-262.97929 88.7353,0 0,317.02718 q 0,15.32702 5.6468,21.7805 5.6468,6.45348 20.1672,7.26016 l 0,75.82838 q -14.5204,2.42006 -25.0073,3.22674 -10.4869,0.80669 -18.5537,0.80669 -50.0145,-4.03343 -56.468,-45.98104 l -1.6133,-43.56099 q -28.234,45.98104 -73.4084,70.18159 -45.1743,23.39386 -100.0289,23.39386 z"
             style="font-style:normal;font-variant:normal;font-weight:600;font-stretch:normal;font-family:Raleway;-inkscape-font-specification:'Raleway Semi-Bold';letter-spacing:50px;fill:#ef5731;fill-opacity:1"
             id="path5358"
             inkscape:connector-curvature="0" />
          <path
             d="m 2462.0228,888.88 -88.7353,0 0,-236.35868 q 0,-59.69469 -19.3605,-86.31529 -19.3604,-27.42729 -55.6612,-27.42729 -19.3605,0 -39.5276,7.26017 -19.3604,7.26016 -36.3008,20.97381 -16.9404,12.90695 -30.654,31.46071 -12.907,17.74707 -20.1672,39.52756 l 0,250.87901 -88.7353,0 0,-421.89622 80.6685,0 0,84.70192 q 24.2005,-42.7543 70.1816,-66.95485 45.981,-25.00723 101.6423,-25.00723 37.9142,0 62.1147,13.71364 25.0072,13.71365 38.7209,37.91419 14.5203,23.39387 20.1671,54.85458 5.6468,30.65403 5.6468,65.34148 l 0,257.33249 z"
             style="font-style:normal;font-variant:normal;font-weight:600;font-stretch:normal;font-family:Raleway;-inkscape-font-specification:'Raleway Semi-Bold';letter-spacing:50px;fill:#ef5731;fill-opacity:1"
             id="path5360"
             inkscape:connector-curvature="0" />
          <path
             d="m 2611.8501,888.88 0,-421.89622 88.7354,0 0,421.89622 -88.7354,0 z m 0,-491.27112 0,-97.60888 88.7354,0 0,97.60888 -88.7354,0 z"
             style="font-style:normal;font-variant:normal;font-weight:600;font-stretch:normal;font-family:Raleway;-inkscape-font-specification:'Raleway Semi-Bold';letter-spacing:50px;fill:#ef5731;fill-opacity:1"
             id="path5362"
             inkscape:connector-curvature="0" />
          <path
             d="m 3090.4267,867.09951 q -17.7471,8.06685 -47.5944,18.55376 -29.0407,9.68021 -63.7281,9.68021 -20.9738,0 -39.5276,-5.64679 -17.747,-5.64679 -32.2674,-16.94038 -13.7136,-11.29359 -21.7805,-29.04066 -8.0668,-18.55376 -8.0668,-44.36767 l 0,-263.78598 -56.468,0 0,-68.56822 56.468,0 0,-138.74981 88.7353,0 0,138.74981 91.9621,0 0,68.56822 -91.9621,0 0,235.552 q 0,22.58718 12.907,33.07409 12.9069,9.68022 31.4607,9.68022 18.5538,0 35.4941,-6.45348 16.9404,-6.45348 25.0073,-10.48691 l 19.3604,70.18159 z"
             style="font-style:normal;font-variant:normal;font-weight:600;font-stretch:normal;font-family:Raleway;-inkscape-font-specification:'Raleway Semi-Bold';letter-spacing:50px;fill:#ef5731;fill-opacity:1"
             id="path5364"
             inkscape:connector-curvature="0" />
          <path
             d="m 3208.4529,988.90894 q 11.2936,2.42005 20.9738,3.22674 9.6802,0.80668 17.7471,0.80668 10.4869,0 18.5537,-2.42005 8.0669,-2.42006 15.327,-12.90696 8.0669,-9.68022 16.9404,-30.65403 9.6802,-20.97381 22.5872,-58.08132 l -172.6306,-421.89622 91.1554,0 130.683,343.64779 116.1626,-343.64779 83.8952,0 -192.7977,519.5051 q -16.1337,43.56102 -48.4011,64.53482 -32.2674,20.9738 -75.0217,20.9738 -23.3938,0 -45.1743,-6.4535 l 0,-76.63506 z"
             style="font-style:normal;font-variant:normal;font-weight:600;font-stretch:normal;font-family:Raleway;-inkscape-font-specification:'Raleway Semi-Bold';letter-spacing:50px;fill:#ef5731;fill-opacity:1"
             id="path5366"
             inkscape:connector-curvature="0" />
        </g>
        <g
           style="font-style:normal;font-variant:normal;font-weight:normal;font-stretch:normal;font-size:806.68493652px;line-height:125%;font-family:Candara;-inkscape-font-specification:Candara;letter-spacing:104.23505402px;word-spacing:0px;opacity:1;fill:#ef5731;fill-opacity:1;stroke:none;stroke-width:1px;stroke-linecap:butt;stroke-linejoin:miter;stroke-opacity:1"
           id="text4754"
           transform="matrix(0.71736573,0,0,0.71736573,575.32366,141.35883)">
          <path
             d="m 1669.608,896.94685 q -65.3415,0 -99.2223,-42.7543 -33.8807,-43.56098 -33.8807,-129.06959 l 0,-258.13918 88.7353,0 0,240.39211 q 0,113.74258 79.8618,113.74258 38.7209,0 72.6017,-23.39386 33.8807,-23.39387 52.4345,-67.76154 l 0,-262.97929 88.7353,0 0,317.02718 q 0,15.32702 5.6468,21.7805 5.6468,6.45348 20.1672,7.26016 l 0,75.82838 q -14.5204,2.42006 -25.0073,3.22674 -10.4869,0.80669 -18.5537,0.80669 -50.0145,-4.03343 -56.468,-45.98104 l -1.6133,-43.56099 q -28.234,45.98104 -73.4084,70.18159 -45.1743,23.39386 -100.0289,23.39386 z"
             style="font-style:normal;font-variant:normal;font-weight:600;font-stretch:normal;font-family:Raleway;-inkscape-font-specification:'Raleway Semi-Bold';letter-spacing:50px;fill:#ef5731;fill-opacity:1"
             id="path5369"
             inkscape:connector-curvature="0" />
          <path
             d="m 2462.0228,888.88 -88.7353,0 0,-236.35868 q 0,-59.69469 -19.3605,-86.31529 -19.3604,-27.42729 -55.6612,-27.42729 -19.3605,0 -39.5276,7.26017 -19.3604,7.26016 -36.3008,20.97381 -16.9404,12.90695 -30.654,31.46071 -12.907,17.74707 -20.1672,39.52756 l 0,250.87901 -88.7353,0 0,-421.89622 80.6685,0 0,84.70192 q 24.2005,-42.7543 70.1816,-66.95485 45.981,-25.00723 101.6423,-25.00723 37.9142,0 62.1147,13.71364 25.0072,13.71365 38.7209,37.91419 14.5203,23.39387 20.1671,54.85458 5.6468,30.65403 5.6468,65.34148 l 0,257.33249 z"
             style="font-style:normal;font-variant:normal;font-weight:600;font-stretch:normal;font-family:Raleway;-inkscape-font-specification:'Raleway Semi-Bold';letter-spacing:50px;fill:#ef5731;fill-opacity:1"
             id="path5371"
             inkscape:connector-curvature="0" />
          <path
             d="m 2611.8501,888.88 0,-421.89622 88.7354,0 0,421.89622 -88.7354,0 z m 0,-491.27112 0,-97.60888 88.7354,0 0,97.60888 -88.7354,0 z"
             style="font-style:normal;font-variant:normal;font-weight:600;font-stretch:normal;font-family:Raleway;-inkscape-font-specification:'Raleway Semi-Bold';letter-spacing:50px;fill:#ef5731;fill-opacity:1"
             id="path5373"
             inkscape:connector-curvature="0" />
          <path
             d="m 3090.4267,867.09951 q -17.7471,8.06685 -47.5944,18.55376 -29.0407,9.68021 -63.7281,9.68021 -20.9738,0 -39.5276,-5.64679 -17.747,-5.64679 -32.2674,-16.94038 -13.7136,-11.29359 -21.7805,-29.04066 -8.0668,-18.55376 -8.0668,-44.36767 l 0,-263.78598 -56.468,0 0,-68.56822 56.468,0 0,-138.74981 88.7353,0 0,138.74981 91.9621,0 0,68.56822 -91.9621,0 0,235.552 q 0,22.58718 12.907,33.07409 12.9069,9.68022 31.4607,9.68022 18.5538,0 35.4941,-6.45348 16.9404,-6.45348 25.0073,-10.48691 l 19.3604,70.18159 z"
             style="font-style:normal;font-variant:normal;font-weight:600;font-stretch:normal;font-family:Raleway;-inkscape-font-specification:'Raleway Semi-Bold';letter-spacing:50px;fill:#ef5731;fill-opacity:1"
             id="path5375"
             inkscape:connector-curvature="0" />
          <path
             d="m 3208.4529,988.90894 q 11.2936,2.42005 20.9738,3.22674 9.6802,0.80668 17.7471,0.80668 10.4869,0 18.5537,-2.42005 8.0669,-2.42006 15.327,-12.90696 8.0669,-9.68022 16.9404,-30.65403 9.6802,-20.97381 22.5872,-58.08132 l -172.6306,-421.89622 91.1554,0 130.683,343.64779 116.1626,-343.64779 83.8952,0 -192.7977,519.5051 q -16.1337,43.56102 -48.4011,64.53482 -32.2674,20.9738 -75.0217,20.9738 -23.3938,0 -45.1743,-6.4535 l 0,-76.63506 z"
             style="font-style:normal;font-variant:normal;font-weight:600;font-stretch:normal;font-family:Raleway;-inkscape-font-specification:'Raleway Semi-Bold';letter-spacing:50px;fill:#ef5731;fill-opacity:1"
             id="path5377"
             inkscape:connector-curvature="0" />
          <path
             inkscape:connector-curvature="0"
             d="m 1095.3403,988.32941 q 11.2936,2.42005 20.9738,3.22674 9.6802,0.80668 17.7471,0.80668 10.4869,0 18.5537,-2.42005 8.0669,-2.42006 15.327,-12.90696 8.0669,-9.68022 16.9404,-30.65403 9.6802,-20.97381 22.5872,-58.08132 l -172.6306,-421.89622 91.1554,0 130.683,343.64779 116.1626,-343.64779 83.8952,0 -192.7977,519.5051 q -16.1337,43.56105 -48.4011,64.53485 -32.2674,20.9738 -75.0217,20.9738 -23.3938,0 -45.1743,-6.4535 l 0,-76.63509 z"
             style="font-style:normal;font-variant:normal;font-weight:600;font-stretch:normal;font-size:806.68493652px;line-height:125%;font-family:Raleway;-inkscape-font-specification:'Raleway Semi-Bold';letter-spacing:50px;word-spacing:0px;opacity:1;fill:#ef5731;fill-opacity:1;stroke:none;stroke-width:1px;stroke-linecap:butt;stroke-linejoin:miter;stroke-opacity:1"
             id="path5377-6" />
        </g>
      </g>
    </g>
  </g>
</svg>
